/* XPM */
static char * flWindow_xpm[] = {
"16 16 6 1",
" 	c None",
".	c #D0D0D0",
"+	c #8080FF",
"@	c #2020FF",
"#	c #606060",
"$	c #A0A0A0",
"................",
".++@@@@@@@++@++#",
".++@@@@@@@++@++#",
".$$$$$$$$$$$$$$#",
".$$$$$$$$$$$$$$#",
".$$$$$$$$$$$$$$#",
".$$$$$$$$$$$$$$#",
".$$$$$$$$$$$$$$#",
".$$$$$$$$$$$$$$#",
".$$$$$$$$$$$$$$#",
".$$$$$$$$$$$$$$#",
".$$$$$$$$$$$$$$#",
".$$$$$$$$$$$$$$#",
".$$$$$$$$$$$$$$#",
".$$$$$$$$$$$$$$#",
".###############"};
